<?xml version="1.0" standalone="no"?><!DOCTYPE svg PUBLIC "-//W3C//DTD SVG 1.1//EN" "http://www.w3.org/Graphics/SVG/1.1/DTD/svg11.dtd"><svg t="1619931593975" class="icon" viewBox="0 0 1024 1024" version="1.1" xmlns="http://www.w3.org/2000/svg" p-id="1006" xmlns:xlink="http://www.w3.org/1999/xlink" width="200" height="200"><defs><style type="text/css"></style></defs><path d="M61.694334 1024l0-85.627701 30.081811 0 0-53.057844 22.371939 0L114.148084 667.973883 92.482627 667.973883l0-85.627701 849.683175 0 0 85.627701-21.655218 0 0 217.340573 22.351461 0 0 53.057844 30.102289 0 0 85.627701L61.694334 1024 61.694334 1024zM258.383098 667.973883l-59.037346 0 0 217.340573 59.037346 0L258.383098 667.973883 258.383098 667.973883zM402.607873 667.973883 343.570527 667.973883l0 217.340573 59.037346 0L402.607873 667.973883 402.607873 667.973883zM546.842887 667.973883l-59.037346 0 0 217.340573 59.037346 0L546.842887 667.973883 546.842887 667.973883zM691.08814 667.973883l-59.057824 0 0 217.340573 59.057824 0L691.08814 667.973883 691.08814 667.973883zM835.323154 667.973883l-59.037346 0 0 217.340573 59.037346 0L835.323154 667.973883 835.323154 667.973883zM717.483957 438.7255l0 114.112248-45.491316 0L671.992641 438.7255l-25.464079 0 0 114.112248-45.491316 0L601.037246 438.7255l-25.484557 0 0 114.112248-45.491316 0L530.061373 438.7255l-25.464079 0 0 114.112248-45.501555 0L459.095739 438.7255l-25.464079 0 0 114.112248-45.491316 0L388.140345 438.7255l-25.484557 0 0 114.112248L317.154233 552.837748 317.154233 438.7255 286.232834 438.7255 286.232834 383.650598l25.505034 0c9.81908-110.692464 86.805171-198.736539 183.767306-210.347422l0-33.603984 15.460699 0L510.965874 0l12.747398 0 0 11.825899 106.392137 0 0 74.743778L523.703033 86.569677l0 53.139755 15.460699 0 0 33.603984c96.951895 11.610883 173.958465 99.654958 183.767306 210.347422l25.505034 0 0 55.074902L717.483957 438.735739 717.483957 438.7255z" p-id="1007"></path></svg>